<svg width="18" height="12" viewBox="0 0 18 12" class="mrm" xmlns="http://www.w3.org/2000/svg"><title>NeedACar</title><g stroke="#5C6872" fill="none" fill-rule="evenodd" stroke-linecap="round" stroke-linejoin="round"><path d="M5.333 9.333c0 .736-.596 1.334-1.333 1.334s-1.333-.598-1.333-1.334C2.667 8.597 3.263 8 4 8s1.333.597 1.333 1.333zM14.667 9.333h2M14.667 9.333c0 .736-.598 1.334-1.334 1.334-.736 0-1.333-.598-1.333-1.334C12 8.597 12.597 8 13.333 8s1.334.597 1.334 1.333zM5.333 9.333H12"></path><path d="M16 9.333s-.24-1.45-.518-3.115c-.468-2.815-2.903-4.885-5.757-4.885-2.462 0-4.687 1.468-5.657 3.73l-.4.937c-2 0-2.335 1.722-2.335 3.333h1.334"></path><path d="M10 2.667c1.616 0 3.03 1.333 3.667 2.666H10M8.44 2.72c-1.378.26-2.545 1.436-3.107 2.613h3M10 2.667V8"></path></g></svg>