<svg width="16" height="17" viewBox="0 0 16 17" class="mrm" xmlns="http://www.w3.org/2000/svg"><title>CommunityEvents</title><g transform="translate(0 1)" stroke="#5C6872" fill-rule="nonzero" stroke-width=".5" fill="#5C6872"><path d="M14.064 5.246c.03-.248-.047-.497-.214-.685-.166-.186-.405-.293-.656-.294h-9.51c-.4-.002-.748.27-.844.655H.292c-.16 0-.292.13-.292.29 0 .162.13.292.292.292h2.56c.242 1.418 1.022 2.69 2.178 3.55L3.007 15.25c-.037.1-.016.212.055.292.07.08.18.115.283.092.104-.023.187-.1.217-.204l.37-1.14h6.757c.16 0 .29-.13.29-.29 0-.16-.13-.29-.29-.29H4.123l1.41-4.322c1.804 1.074 4.056 1.065 5.85-.023l.7 2.144c.03.1.11.18.214.204.103.025.212-.008.283-.085.073-.08.097-.19.064-.29l-.757-2.308c1.208-.918 1.993-2.284 2.177-3.786zM8.44 9.616c-2.565 0-4.73-1.9-5.046-4.436-.01-.083.016-.167.07-.23.057-.063.138-.1.222-.1h9.508c.084 0 .163.037.218.1.057.062.084.146.074.23-.317 2.535-2.48 4.437-5.046 4.437zM13.204 12.378c-.906 0-1.64.73-1.64 1.633 0 .902.734 1.633 1.64 1.633.905 0 1.64-.73 1.64-1.632 0-.9-.735-1.63-1.64-1.632zm0 2.684c-.584 0-1.056-.47-1.056-1.05 0-.582.472-1.053 1.056-1.053.583 0 1.056.47 1.056 1.05-.004.58-.476 1.045-1.056 1.047v.005z"></path><ellipse cx="13.205" cy="14.012" rx="1" ry="1"></ellipse><path d="M11.95 5.916c-.16-.018-.303.095-.324.254-.132 1.092-1.062 1.914-2.167 1.915-.162 0-.292.13-.292.29 0 .16.13.29.29.29 1.402 0 2.58-1.04 2.748-2.425.01-.077-.012-.154-.06-.215-.048-.06-.118-.1-.195-.11zM8.734.058c-.062-.046-.14-.066-.217-.055-.076.01-.145.052-.192.113-.42.558-.227 1.15-.06 1.67.148.457.274.848.047 1.206-.056.088-.06.2-.012.29.05.092.143.15.248.155.104.004.202-.047.258-.135.373-.58.183-1.176.015-1.695-.166-.52-.255-.84-.028-1.144.096-.128.07-.31-.058-.405zM11.264.058c-.128-.096-.31-.07-.408.058-.42.558-.228 1.15-.06 1.67.148.457.274.848.046 1.206-.086.136-.045.315.092.4.136.086.317.046.402-.09.374-.58.183-1.176.016-1.695-.167-.52-.257-.84-.03-1.144.096-.128.07-.31-.058-.405zM6.205.058c-.062-.046-.14-.066-.216-.055-.078.01-.147.052-.193.113-.42.558-.228 1.15-.06 1.67.147.457.274.848.046 1.206-.056.088-.06.2-.01.29.047.092.142.15.246.155.103.004.2-.047.257-.135.374-.58.183-1.176.016-1.695-.168-.52-.263-.84-.03-1.142.047-.062.067-.14.056-.216-.012-.077-.053-.146-.115-.192z"></path></g></svg>