<svg width="18" height="15" viewBox="0 0 18 15" class="mrm" xmlns="http://www.w3.org/2000/svg"><title>DogFriendly</title><g fill="none" fill-rule="evenodd"><path d="M15.577 3.435c-.407 0-.78-.23-.96-.594-.245-.488-.745-.797-1.29-.797-.964 0-1.744.5-2.236 1.728-.42 1.06-1.445 1.752-2.583 1.752h-3.68c-2.815 0-3.175-2.044-1.045-4.174C2.246 1.348 1 2.594 1 4.13c0 1.095.633 2.044 1.554 2.498-.308.54-1.206 4.344-1.206 6.198 0 .576.467 1.044 1.043 1.044.578 0 1.045-.468 1.045-1.044v-.438c0-1.377 1.018-2.747 2.782-2.692.1.002 1.044 0 1.044 0 1.79 0 3.13.935 3.13 2.73v.4c0 .576.47 1.044 1.045 1.044.576 0 1.043-.468 1.043-1.044 0-2.658-.093-1.482.426-4.858.156-1.008 1.022-1.75 2.04-1.75.943 0 1.708-.766 1.708-1.708 0-.595-.48-1.075-1.075-1.075zM10.534 4.647l2.61 2.61M12.745 8.902l-3.49-3.49" stroke="#5C6872" stroke-linecap="round" stroke-linejoin="round"></path><path d="M13.174 3.783c-.192 0-.348.155-.348.347 0 .192.156.348.348.348.192 0 .348-.156.348-.348 0-.192-.156-.347-.348-.347" fill="#5C6872"></path></g></svg>