<svg width="18" height="18" viewBox="0 0 18 18" class="mrm" xmlns="http://www.w3.org/2000/svg"><title>EasyParking</title><g stroke="#5C6872" fill="none" fill-rule="evenodd" stroke-linecap="round" stroke-linejoin="round"><path d="M4 16.667H2v-1.334h2zM13.333 16.667h-2v-1.334h2zM14 15.333v-2.666l-1.333-1.334h-10l-1.334 1.334v2.666zM6.967 8H4l-1.334 3.333h10M1.333 14h3M11 14h3M16.667 5.667c0 2.393-1.94 4.333-4.334 4.333C9.94 10 8 8.06 8 5.667c0-2.394 1.94-4.334 4.333-4.334 2.394 0 4.334 1.94 4.334 4.334z"></path><path d="M11.333 8V3.333h1.334c.736 0 1.333.598 1.333 1.334C14 5.403 13.403 6 12.667 6h-1.334"></path></g></svg>