<svg width="18" height="16" viewBox="0 0 18 16" class="mrm" xmlns="http://www.w3.org/2000/svg"><title>FriendlyNeighbors</title><g stroke="#5C6872" fill="none" fill-rule="evenodd" stroke-linejoin="round"><path d="M16.667 7.506c0 3.455-3.432 6.255-7.667 6.255-.945 0-1.85-.14-2.686-.394l-4.406 2.05 1.725-3.443c-1.42-1.136-2.3-2.718-2.3-4.467C1.333 4.05 4.765 1.25 9 1.25c4.235 0 7.667 2.8 7.667 6.256z"></path><path d="M5.333 6.25c0-.736.598-1.333 1.334-1.333C7.403 4.917 8 5.514 8 6.25M12.667 6.25c0-.736-.597-1.333-1.334-1.333-.736 0-1.333.597-1.333 1.334M4.667 7.917c0 1.65 1.35 3 3 3h2.666c1.65 0 3-1.35 3-3" stroke-linecap="round"></path></g></svg>