<svg width="17" height="17" viewBox="0 0 17 17" class="mrm" xmlns="http://www.w3.org/2000/svg"><title>NearbyGroceries</title><g stroke="#5C6872" fill="none" fill-rule="evenodd" stroke-linecap="round" stroke-linejoin="round"><path d="M5.522 14.565c0 .576-.468 1.044-1.044 1.044-.576 0-1.043-.47-1.043-1.045 0-.576.467-1.043 1.043-1.043.576 0 1.044.467 1.044 1.043zM13.174 14.565c0 .576-.468 1.044-1.044 1.044-.576 0-1.043-.47-1.043-1.045 0-.576.467-1.043 1.043-1.043.576 0 1.044.467 1.044 1.043z"></path><path d="M17 1.696h-2.087L12.13 13.522H4.478"></path><path d="M12.478 12.13H3.435L1.348 5.87h12.565M8.304 5.87l2.783-2.783 2.837 2.783M4.826 5.87L2.74 1.216 1 2.043 2.74 5.87"></path><path d="M7.26 5.87V3.783h3.13"></path></g></svg>