<svg width="15" height="18" viewBox="0 0 15 18" class="mrm" xmlns="http://www.w3.org/2000/svg"><title>HolidaySpirit</title><g fill="none" fill-rule="evenodd"><path stroke="#5C6872" stroke-linejoin="round" d="M9 1.333H5.667V4H9z"></path><path d="M3.333 4h8" stroke="#5C6872" stroke-linecap="round" stroke-linejoin="round"></path><path d="M9.667 6.333c0 1.29-1.044 2.334-2.334 2.334C6.045 8.667 5 7.623 5 6.333 5 5.045 6.045 4 7.333 4c1.29 0 2.334 1.045 2.334 2.333zM11.333 12.667c0 2.21-1.79 4-4 4-2.208 0-4-1.79-4-4s1.792-4 4-4c2.21 0 4 1.79 4 4z" stroke="#5C6872" stroke-linejoin="round"></path><path d="M6.667 5.667c-.184 0-.334.15-.334.333 0 .185.15.333.334.333C6.85 6.333 7 6.185 7 6c0-.183-.15-.333-.333-.333M8 5.667c-.184 0-.333.15-.333.333 0 .185.15.333.333.333.183 0 .333-.148.333-.333 0-.183-.15-.333-.333-.333" fill="#000"></path><path d="M10.912 10.878L12.667 10" stroke="#5C6872" stroke-linejoin="round"></path><path stroke="#5C6872" stroke-linecap="round" stroke-linejoin="round" d="M13.458 8.02l-.79 1.98h1.998"></path><path d="M3.755 10.878L2 10" stroke="#5C6872" stroke-linejoin="round"></path><path stroke="#5C6872" stroke-linecap="round" stroke-linejoin="round" d="M1.208 8.02L2 10H0"></path></g></svg>