<svg xmlns="http://www.w3.org/2000/svg" viewBox="0 0 24 24"><defs><style>.Accent-Line,.Dark-Line,.cls-1{fill:none;}.Dark-Line{stroke:#474e52;stroke-width:1.5px;}.Accent-Fill,.Accent-Line,.Dark-Line{stroke-linecap:round;stroke-linejoin:round;}.Accent-Fill{fill:#20c063;}.Accent-Fill,.Accent-Line{stroke:#20c063;}</style></defs><title>Sale</title><g id="Base"><rect id="Box" class="cls-1" width="24" height="24"/></g><g id="Layer_1" data-name="Layer 1"><polyline class="Dark-Line" points="3.5 12 3.5 23 20.5 23"/><polyline class="Dark-Line" points="1 11.5 12 1 23 11.5"/><polyline class="Dark-Line" points="16 2 19.5 2 19.5 5.5"/><rect class="Accent-Fill" x="10.5" y="6" width="3" height="3"/><polyline class="Accent-Line" points="19.5 19 17.68 19 17.68 15 19.5 15"/><line class="Accent-Line" x1="17.68" y1="17" x2="19.01" y2="17"/><polyline class="Accent-Line" points="12.39 19 11.21 15 10.02 19"/><line class="Accent-Line" x1="10.29" y1="18.02" x2="12.12" y2="18.02"/><polyline class="Accent-Line" points="16.08 19 14.48 19 14.48 15"/><path class="Accent-Line" d="M6.5,18.06a1,1,0,0,0,2-.06c0-.82-.82-.95-1-1s-1-.19-1-1a1,1,0,0,1,2-.06"/></g></svg>