<svg width="17" height="16" viewBox="0 0 17 16" class="mrm" xmlns="http://www.w3.org/2000/svg"><title>WellKeptYards</title><g stroke="#5C6872" fill="none" fill-rule="evenodd" stroke-linecap="round" stroke-linejoin="round"><path d="M13.217 13.87H5.565M4.522 12.5v-1.413h9.74V12.5"></path><path d="M16 13.87c0 .77-.622 1.39-1.39 1.39-.77 0-1.393-.62-1.393-1.39 0-.768.624-1.392 1.392-1.392.768 0 1.39.624 1.39 1.392zM5.565 13.87c0 .77-.622 1.39-1.39 1.39-.77 0-1.392-.62-1.392-1.39 0-.768.623-1.392 1.39-1.392.77 0 1.392.624 1.392 1.392zM14.26 11.087c0-1.537-1.245-2.783-2.782-2.783h-6.26v2.783h9.043zM9.39 6.913H6.61v1.39h2.78zM4.522 11.087l-2.725-9.74H.347"></path><path d="M3.13 12.826l-1.043-1.74h2.435"></path></g></svg>