<svg width="17" height="18" viewBox="0 0 17 18" class="mrm" xmlns="http://www.w3.org/2000/svg"><title>PeopleWalkAloneAtNight</title><g stroke="#5C6872" fill="none" fill-rule="evenodd" stroke-linejoin="round"><path d="M5.333 9c0-3.396 1.87-6.316 4.552-7.613-.29-.034-.586-.054-.885-.054-4.235 0-7.667 3.433-7.667 7.667 0 4.235 3.432 7.667 7.667 7.667.3 0 .595-.018.885-.052C7.205 15.317 5.333 12.397 5.333 9z" stroke-linecap="round"></path><path d="M13.333 10.667c-.005 1.674.81 2.628 2.667 2.666-1.723-.006-2.58.917-2.667 2.667-.014-1.65-.754-2.668-2.666-2.667 1.712-.023 2.66-.85 2.666-2.666zM10 6.333C9.996 7.38 10.507 7.975 11.667 8c-1.077-.004-1.612.573-1.667 1.667C9.99 8.637 9.53 8 8.333 8c1.07-.015 1.663-.53 1.667-1.667zM14.667 2c-.004 1.257.608 1.97 2 2-1.292-.005-1.935.688-2 2-.01-1.237-.567-2-2-2 1.284-.017 1.994-.637 2-2z"></path></g></svg>