<svg width="18" height="18" viewBox="0 0 18 18" class="mrm" xmlns="http://www.w3.org/2000/svg"><title>KidsPlayOutside</title><path d="M5.957 12.326l.632-.63 9.99-2.654c.083-.02.146-.105.146-.19L17 1.213c0-.023 0-.044-.02-.065v-.02c0-.022-.022-.043-.043-.064-.02-.02-.063-.042-.106-.063h-.04l-7.63.274c-.084 0-.168.063-.19.147L6.295 11.4l-.632.632s-.422.442-1.012.8c-.042-.758-.21-1.474-.548-2-.548-.78-1.622-.948-2.38-.4-.78.547-.95 1.62-.402 2.38.485.588 1.075.904 1.75.904h.063c.38 0 .76-.105 1.117-.232-.02 1.6-.443 3.242-.443 3.263-.02.106.042.232.148.253h.063c.084 0 .19-.063.21-.168.022-.106.464-1.874.464-3.558.717-.38 1.244-.927 1.265-.948zm10.6-10.59l-.23 6.738-3.205-3.306 3.435-3.43zm-3.73 3.138l-3.12-3.2 6.576-.232-3.456 3.432zm3.182 3.873l-8.83 2.358 5.626-5.62 3.203 3.262zM9.286 1.842l3.245 3.326-5.648 5.643 2.403-8.968zM3.07 13.316c-.548-.02-1.033-.274-1.433-.758-.4-.59-.274-1.39.316-1.79.59-.42 1.39-.273 1.79.295.338.484.465 1.22.507 1.98-.337.168-.717.273-1.117.273H3.07z" stroke="#5C6872" stroke-width=".5" fill="#5C6872" fill-rule="nonzero"></path></svg>