<svg id="Base" xmlns="http://www.w3.org/2000/svg" viewBox="0 0 24 24"><defs><style>.Accent-Line-3,.Dark-Line,.cls-1{fill:none;}.Dark-Line{stroke:#474e52;stroke-width:1.5px;}.Accent-Line-3,.Dark-Line{stroke-linecap:round;stroke-linejoin:round;}.Accent-Line-3{stroke:#20c063;}</style></defs><title>Sold-2</title><rect class="cls-1" width="24" height="24"/><rect class="cls-1" width="24" height="24"/><g id="invisible_shape" data-name="invisible shape"><rect class="cls-1" width="24" height="24"/></g><rect class="cls-1" width="24" height="24"/><rect class="cls-1" width="24" height="24"/><rect class="cls-1" width="24" height="24"/><g id="Invisible_Shape-2" data-name="Invisible Shape"><rect class="cls-1" width="24" height="24"/></g><g id="invisible_shape-3" data-name="invisible shape"><rect class="cls-1" width="24" height="24"/></g><rect class="cls-1" width="24" height="24"/><rect class="Dark-Line" x="1.56" y="4.5" width="16.95" height="12"/><polyline class="Dark-Line" points="22.5 23.5 22.5 0.5 1.5 0.5"/><line class="Dark-Line" x1="15.52" y1="4.5" x2="15.52" y2="0.5"/><line class="Dark-Line" x1="4.55" y1="4.5" x2="4.55" y2="0.5"/><rect class="cls-1" width="24" height="24"/><polyline class="Accent-Line-3" points="16.5 12.5 14.68 12.5 14.68 8.5 16.5 8.5"/><line class="Accent-Line-3" x1="14.68" y1="10.5" x2="16.01" y2="10.5"/><polyline class="Accent-Line-3" points="9.39 12.5 8.21 8.5 7.02 12.5"/><line class="Accent-Line-3" x1="7.29" y1="11.52" x2="9.12" y2="11.52"/><polyline class="Accent-Line-3" points="13.08 12.5 11.48 12.5 11.48 8.5"/><path class="Accent-Line-3" d="M3.5,11.56a1,1,0,0,0,2-.06c0-.82-.82-.95-1-1s-1-.19-1-1a1,1,0,0,1,2-.06"/></svg>