<svg width="16" height="16" viewBox="0 0 16 16" class="mrm" xmlns="http://www.w3.org/2000/svg"><title>Sidewalks</title><g stroke="#5C6872" fill="none" fill-rule="evenodd" stroke-linecap="round"><path d="M15.5 11h-4M3.5 11h-3M.5 15h15"></path><path d="M11.05 2c0 .828-.673 1.5-1.5 1.5-.83 0-1.5-.672-1.5-1.5S8.72.5 9.55.5c.827 0 1.5.672 1.5 1.5zM12.39 8.22c-1.18.5-2.23.52-3.12.05-.14-.07-.26-.16-.38-.25L9.93 11l.47 1.34c.17.45-.07.95-.54 1.11-.46.16-.98-.07-1.14-.52L8 11l-.38-1.01L7.25 11l-.72 1.93c-.17.45-.68.68-1.15.52-.46-.16-.7-.66-.54-1.11l.5-1.34 1.83-4.9c-.35-.08-.84-.13-1.28.04-.5.2-.88.65-1.15 1.37-.17.44-.68.68-1.15.51-.46-.16-.7-.65-.53-1.1.92-2.46 3.164-3.38 5.61-2.29.83.37.83.37 1.46 2.13.144.4.9.15 1.54-.12.46-.19.98.01 1.18.44.2.44-.01.95-.46 1.14z" stroke-linejoin="round"></path></g></svg>