<svg class="mls" width="17px" height="16px" viewBox="0 0 17 16" version="1.1" xmlns="http://www.w3.org/2000/svg"><title>ThumbsUp</title><g stroke="none" stroke-width="1" fill="none" fill-rule="evenodd" transform="translate(-27.000000, -91.000000)" stroke-linecap="round" stroke-linejoin="round"><path d="M40.6136364,101.827113 L40.6136364,101.827113 C41.1788636,101.827113 41.6363636,102.294476 41.6363636,102.870335 C41.6363636,103.446889 41.1788636,103.913557 40.6136364,103.913557 L39.9318182,103.913557 C40.4970455,103.913557 40.9545455,104.38092 40.9545455,104.956778 C40.9545455,105.533332 40.4970455,106 39.9318182,106 L35.5,106 C32.7727273,106 33.4545455,104.609038 28,104.609038 L28,98.3497073 L30.0454545,98.3497073 C32.4318182,98.3497073 35.1590909,96.108867 35.1590909,92.785858 C35.1590909,91.6863023 37.2045455,91.5472061 37.2045455,93.6336495 C37.2045455,95.0246119 36.5227273,97.6542261 36.5227273,97.6542261 L41.9772727,97.6542261 C42.5425,97.6542261 43,98.1215895 43,98.6974479 C43,99.2740017 42.5425,99.7406696 41.9772727,99.7406696 L41.2954545,99.7406696 C41.8606818,99.7406696 42.3181818,100.208033 42.3181818,100.783891 C42.3181818,101.360445 41.8606818,101.827113 41.2954545,101.827113 L40.6136364,101.827113" id="icon_thumbsUp" stroke="#474E52"></path></g></svg>