<svg width="14" height="16" viewBox="0 0 14 16" class="mrm" xmlns="http://www.w3.org/2000/svg" xmlns:xlink="http://www.w3.org/1999/xlink"><title>Wildlife</title><defs><path id="a" d="M0 11h8V.273H0z"></path></defs><g fill="none" fill-rule="evenodd"><g transform="translate(3 4.227)"><mask id="b" fill="#fff"><use xlink:href="#a"></use></mask><path d="M8 .273H0V7.54c0 1.063.597 2.037 1.544 2.52l1.35.69c.33.167.688.25 1.048.25.348 0 .697-.08 1.017-.236l1.457-.715C7.387 9.574 8 8.587 8 7.51V.272zm-1 1V7.51C7 8.2 6.598 8.846 5.977 9.15l-1.457.715c-.18.087-.378.134-.578.134-.206 0-.41-.05-.594-.143l-1.35-.688C1.383 8.854 1 8.23 1 7.54V1.273h6z" fill="#5C6872" mask="url(#b)"></path></g><path stroke="#5C6872" stroke-linecap="round" stroke-linejoin="round" d="M3.5 5h-3l3 3M10.5 5h3l-3 3"></path><path d="M6 8c0 .276-.224.5-.5.5S5 8.276 5 8s.224-.5.5-.5.5.224.5.5M9 8c0 .276-.224.5-.5.5S8 8.276 8 8s.224-.5.5-.5.5.224.5.5" fill="#5C6872"></path><path stroke="#5C6872" stroke-linecap="round" d="M6.5 5L1 2.5v-2M3.5 1L2.33 3.105M5.5 3l-2.073.603M7.5 5L13 2.5v-2M10.5 1l1.17 2.105M8.5 3l2.073.603"></path><path d="M5.977 12H8M7 12v.947" stroke="#5C6872" stroke-linecap="round" stroke-linejoin="round"></path></g></svg>